{
  "accessors": [
    {
      "bufferView": 2,
      "componentType": 5126,
      "count": 5376,
      "max": [
        0.647940993309021,
        0.40656501054763794,
        1.0
      ],
      "min": [
        -0.647940993309021,
        -0.40656501054763794,
        -1.0
      ],
      "type": "VEC3"
    },
    {
      "bufferView": 2,
      "byteOffset": 64512,
      "componentType": 5126,
      "count": 5376,
      "max": [
        0.9999972581863403,
        0.999991774559021,
        0.9999930262565613
      ],
      "min": [
        -0.9999868869781494,
        -0.9999868869781494,
        -0.9999903440475464
      ],
      "type": "VEC3"
    },
    {
      "bufferView": 3,
      "componentType": 5126,
      "count": 5376,
      "max": [
        0.9999552369117737,
        0.9999973773956299,
        0.9999932646751404,
        1.0
      ],
      "min": [
        -0.9999885559082031,
        -0.9999200105667114,
        -0.9999903440475464,
        -1.0
      ],
      "type": "VEC4"
    },
    {
      "bufferView": 1,
      "componentType": 5126,
      "count": 5376,
      "max": [
        0.9554650187492371,
        0.976722002029419
      ],
      "min": [
        0.016318099573254585,
        0.01961209997534752
      ],
      "type": "VEC2"
    },
    {
      "bufferView": 0,
      "componentType": 5125,
      "count": 28188,
      "type": "SCALAR"
    },
    {
      "bufferView": 2,
      "byteOffset": 129024,
      "componentType": 5126,
      "count": 22,
      "max": [
        0.5964940190315247,
        0.25698599219322205,
        0.9525629878044128
      ],
      "min": [
        -0.592477023601532,
        -0.3375000059604645,
        -0.9389820098876953
      ],
      "type": "VEC3"
    },
    {
      "bufferView": 2,
      "byteOffset": 129288,
      "componentType": 5126,
      "count": 22,
      "max": [
        0.8438895344734192,
        0.996562123298645,
        0.5298831462860107
      ],
      "min": [
        -0.8438895344734192,
        -0.997218132019043,
        -0.5298827290534973
      ],
      "type": "VEC3"
    },
    {
      "bufferView": 3,
      "byteOffset": 86016,
      "componentType": 5126,
      "count": 22,
      "max": [
        0.527911365032196,
        0.9964550137519836,
        0.04663357883691788,
        1.0
      ],
      "min": [
        -0.5266100764274597,
        -0.9964549541473389,
        -0.998784065246582,
        1.0
      ],
      "type": "VEC4"
    },
    {
      "bufferView": 1,
      "byteOffset": 43008,
      "componentType": 5126,
      "count": 22,
      "max": [
        0.7192379832267761,
        0.9844369888305664
      ],
      "min": [
        0.02639250084757805,
        0.16354399919509888
      ],
      "type": "VEC2"
    },
    {
      "bufferView": 0,
      "byteOffset": 112752,
      "componentType": 5125,
      "count": 84,
      "type": "SCALAR"
    }
  ],
  "asset": {
    "extras": {
      "author": "KaitlinKelly (https://sketchfab.com/KaitlinK2000)",
      "license": "CC-BY-4.0 (http://creativecommons.org/licenses/by/4.0/)",
      "source": "https://sketchfab.com/3d-models/grungy-brown-package-1a5db996f6fd487b9390fa23ea3121fb",
      "title": "Grungy Brown Package"
    },
    "generator": "Sketchfab-12.65.0",
    "version": "2.0"
  },
  "bufferViews": [
    {
      "buffer": 0,
      "byteLength": 113088,
      "name": "floatBufferViews",
      "target": 34963
    },
    {
      "buffer": 0,
      "byteLength": 43184,
      "byteOffset": 113088,
      "byteStride": 8,
      "name": "floatBufferViews",
      "target": 34962
    },
    {
      "buffer": 0,
      "byteLength": 129552,
      "byteOffset": 156272,
      "byteStride": 12,
      "name": "floatBufferViews",
      "target": 34962
    },
    {
      "buffer": 0,
      "byteLength": 86368,
      "byteOffset": 285824,
      "byteStride": 16,
      "name": "floatBufferViews",
      "target": 34962
    }
  ],
  "buffers": [
    {
      "byteLength": 372192,
      "uri": "scene.bin"
    }
  ],
  "images": [
    {
      "uri": "textures/lambert1_baseColor.jpeg"
    },
    {
      "uri": "textures/lambert1_metallicRoughness.png"
    },
    {
      "uri": "textures/lambert1_normal.png"
    }
  ],
  "materials": [
    {
      "doubleSided": true,
      "name": "lambert1",
      "normalTexture": {
        "index": 2
      },
      "occlusionTexture": {
        "index": 1
      },
      "pbrMetallicRoughness": {
        "baseColorTexture": {
          "index": 0
        },
        "metallicRoughnessTexture": {
          "index": 1
        }
      }
    }
  ],
  "meshes": [
    {
      "name": "defaultMaterial",
      "primitives": [
        {
          "attributes": {
            "NORMAL": 1,
            "POSITION": 0,
            "TANGENT": 2,
            "TEXCOORD_0": 3
          },
          "indices": 4,
          "material": 0,
          "mode": 4
        }
      ]
    },
    {
      "name": "defaultMaterial",
      "primitives": [
        {
          "attributes": {
            "NORMAL": 6,
            "POSITION": 5,
            "TANGENT": 7,
            "TEXCOORD_0": 8
          },
          "indices": 9,
          "material": 0,
          "mode": 4
        }
      ]
    }
  ],
  "nodes": [
    {
      "children": [
        1
      ],
      "matrix": [
        1.0,
        0.0,
        0.0,
        0.0,
        0.0,
        2.220446049250313e-16,
        -1.0,
        0.0,
        0.0,
        1.0,
        2.220446049250313e-16,
        0.0,
        0.0,
        0.0,
        0.0,
        1.0
      ],
      "name": "Sketchfab_model"
    },
    {
      "children": [
        2,
        4
      ],
      "matrix": [
        1.0,
        0.0,
        0.0,
        0.0,
        0.0,
        -4.371139006309477e-08,
        0.999999999999999,
        0.0,
        0.0,
        -0.999999999999999,
        -4.371139006309477e-08,
        0.0,
        0.0,
        0.0,
        0.0,
        1.0
      ],
      "name": "Collada visual scene group"
    },
    {
      "children": [
        3
      ],
      "name": "Strings_Low"
    },
    {
      "mesh": 0,
      "name": "defaultMaterial"
    },
    {
      "children": [
        5
      ],
      "name": "Package_Low"
    },
    {
      "mesh": 1,
      "name": "defaultMaterial"
    }
  ],
  "samplers": [
    {
      "magFilter": 9729,
      "minFilter": 9987,
      "wrapS": 10497,
      "wrapT": 10497
    }
  ],
  "scene": 0,
  "scenes": [
    {
      "name": "Sketchfab_Scene",
      "nodes": [
        0
      ]
    }
  ],
  "textures": [
    {
      "sampler": 0,
      "source": 0
    },
    {
      "sampler": 0,
      "source": 1
    },
    {
      "sampler": 0,
      "source": 2
    }
  ]
}
